<svg width="120" height="117" viewBox="0 0 120 117" fill="none" xmlns="http://www.w3.org/2000/svg">
<mask id="mask0_1046_14453" style="mask-type:alpha" maskUnits="userSpaceOnUse" x="0" y="0" width="120" height="117">
<rect x="0.5" y="0.5" width="119" height="116" fill="#D9D9D9" stroke="#3D6B8A"/>
</mask>
<g mask="url(#mask0_1046_14453)">
<g filter="url(#filter0_g_1046_14453)">
<path d="M53.731 154.881C53.731 154.881 53.7309 95.7638 53.7309 92.4176C53.7309 89.0713 53.3632 85.3533 50.3981 83.1225C47.6659 81.0669 41.8807 78.2889 35.5856 76.0582C32.2563 74.8784 29.0468 79.2043 27.8087 82.007C26.3303 85.3533 24.4776 89.4431 30.0323 90.5585C34.476 91.4508 45.4632 91.674 49.66 91.674" stroke="#3D6B8A" stroke-width="2" stroke-linecap="round"/>
</g>
<g filter="url(#filter1_g_1046_14453)">
<path d="M73.1658 167.358C73.1658 167.358 73.1659 103.651 73.1659 100.045C73.1659 96.4389 72.8531 94.4612 74.7318 92.2174C77.0801 89.4127 84.1202 85.0047 90.7737 82.6007C94.681 81.1889 96.6432 97.4262 92.3421 97.4265C86.6872 97.4269 80.7279 97.4265 76.2921 97.4265" stroke="#3D6B8A" stroke-width="2" stroke-linecap="round"/>
</g>
<g filter="url(#filter2_g_1046_14453)">
<path d="M86.3509 148.55L86.3509 100.699M86.351 82.1634C86.351 82.1634 86.04 77.5573 87.9074 75.3722C90.2416 72.6408 101.232 68.3861 108.125 67.0898C114.35 65.9192 115.512 82.9952 111.237 82.9956C107.794 82.9958 101.904 82.9956 96.8429 82.9955" stroke="#3D6B8A" stroke-width="2" stroke-linecap="round"/>
</g>
<g filter="url(#filter3_g_1046_14453)">
<path d="M32.9382 148.946V94.0466M26.5565 65.0133C23.3636 66.4092 18.1785 67.1144 12.5922 65.0133C7.00592 62.9123 5.1728 57.7187 7.00701 54.6081C10.4057 48.8444 17.7784 50.6061 23.3636 53.4075C27.3836 55.4239 30.0257 58.8223 31.5876 61.5139C32.5882 63.2381 32.9382 65.2397 32.9382 67.2332V72.0589" stroke="#3D6B8A" stroke-width="2" stroke-linecap="round"/>
</g>
<g filter="url(#filter4_g_1046_14453)">
<path d="M67.1022 126.07V48.7114C66.9636 46.6319 67.3518 42.2233 70.0135 41.2251C73.3408 39.9774 78.746 37.8979 78.746 34.1548C78.746 30.4116 75.8346 21.6776 64.1893 18.3504C52.544 15.0231 46.2582 18.5248 44.1943 23.3432C43.1253 25.839 43.4611 30.645 46.6937 34.5729C50.9721 39.7713 58.7781 41.2268 64.603 42.4745" stroke="#3D6B8A" stroke-width="2" stroke-linecap="round"/>
<path d="M48.8984 24.6494C49.3329 27.5281 50.5349 29.665 53.3678 31.9665C56.6454 34.6293 60.2814 35.9704 64.1067 36.2342" stroke="#3D6B8A" stroke-width="2" stroke-linecap="round"/>
</g>
<g filter="url(#filter5_g_1046_14453)">
<path d="M43.4948 144.931V95.8541M45.4594 59.6691C50.0382 58.6883 56.1743 57.5442 59.5374 53.4578C61.2057 51.4307 61.8925 49.1061 61.9297 47.1932M43.4948 74.7718V64.5718C43.6037 62.9371 43.2986 59.4716 41.2062 58.687C38.5908 57.7062 36.4214 55.5112 36.4214 50.9363C36.4214 46.3614 39.5757 42.1502 43.9061 39.6049C44.0963 39.4931 44.2887 39.3883 44.4833 39.291" stroke="#3D6B8A" stroke-width="2" stroke-linecap="round"/>
<path d="M47.7009 54.1542C49.0403 51.6979 52.4769 47.4116 55.5547 44.4473" stroke="#3D6B8A" stroke-width="2" stroke-linecap="round"/>
</g>
</g>
<defs>
<filter id="filter0_g_1046_14453" x="25.0613" y="74.6364" width="29.8892" height="81.4644" filterUnits="userSpaceOnUse" color-interpolation-filters="sRGB">
<feFlood flood-opacity="0" result="BackgroundImageFix"/>
<feBlend mode="normal" in="SourceGraphic" in2="BackgroundImageFix" result="shape"/>
<feTurbulence type="fractalNoise" baseFrequency="0.33783784508705139 0.33783784508705139" numOctaves="3" seed="6684" />
<feDisplacementMap in="shape" scale="0.43999999761581421" xChannelSelector="R" yChannelSelector="G" result="displacedImage" width="100%" height="100%" />
<feMerge result="effect1_texture_1046_14453">
<feMergeNode in="displacedImage"/>
</feMerge>
</filter>
<filter id="filter1_g_1046_14453" x="71.9206" y="81.2932" width="24.0728" height="87.2852" filterUnits="userSpaceOnUse" color-interpolation-filters="sRGB">
<feFlood flood-opacity="0" result="BackgroundImageFix"/>
<feBlend mode="normal" in="SourceGraphic" in2="BackgroundImageFix" result="shape"/>
<feTurbulence type="fractalNoise" baseFrequency="0.33783784508705139 0.33783784508705139" numOctaves="3" seed="6684" />
<feDisplacementMap in="shape" scale="0.43999999761581421" xChannelSelector="R" yChannelSelector="G" result="displacedImage" width="100%" height="100%" />
<feMerge result="effect1_texture_1046_14453">
<feMergeNode in="displacedImage"/>
</feMerge>
</filter>
<filter id="filter2_g_1046_14453" x="85.112" y="65.8108" width="29.8892" height="83.959" filterUnits="userSpaceOnUse" color-interpolation-filters="sRGB">
<feFlood flood-opacity="0" result="BackgroundImageFix"/>
<feBlend mode="normal" in="SourceGraphic" in2="BackgroundImageFix" result="shape"/>
<feTurbulence type="fractalNoise" baseFrequency="0.33783784508705139 0.33783784508705139" numOctaves="3" seed="6684" />
<feDisplacementMap in="shape" scale="0.43999999761581421" xChannelSelector="R" yChannelSelector="G" result="displacedImage" width="100%" height="100%" />
<feMerge result="effect1_texture_1046_14453">
<feMergeNode in="displacedImage"/>
</feMerge>
</filter>
<filter id="filter3_g_1046_14453" x="5.08859" y="49.5725" width="29.0689" height="100.594" filterUnits="userSpaceOnUse" color-interpolation-filters="sRGB">
<feFlood flood-opacity="0" result="BackgroundImageFix"/>
<feBlend mode="normal" in="SourceGraphic" in2="BackgroundImageFix" result="shape"/>
<feTurbulence type="fractalNoise" baseFrequency="0.33783784508705139 0.33783784508705139" numOctaves="3" seed="6684" />
<feDisplacementMap in="shape" scale="0.43999999761581421" xChannelSelector="R" yChannelSelector="G" result="displacedImage" width="100%" height="100%" />
<feMerge result="effect1_texture_1046_14453">
<feMergeNode in="displacedImage"/>
</feMerge>
</filter>
<filter id="filter4_g_1046_14453" x="42.4284" y="15.82" width="37.5377" height="111.47" filterUnits="userSpaceOnUse" color-interpolation-filters="sRGB">
<feFlood flood-opacity="0" result="BackgroundImageFix"/>
<feBlend mode="normal" in="SourceGraphic" in2="BackgroundImageFix" result="shape"/>
<feTurbulence type="fractalNoise" baseFrequency="0.33783784508705139 0.33783784508705139" numOctaves="3" seed="6684" />
<feDisplacementMap in="shape" scale="0.43999999761581421" xChannelSelector="R" yChannelSelector="G" result="displacedImage" width="100%" height="100%" />
<feMerge result="effect1_texture_1046_14453">
<feMergeNode in="displacedImage"/>
</feMerge>
</filter>
<filter id="filter5_g_1046_14453" x="35.2019" y="38.071" width="27.9478" height="108.08" filterUnits="userSpaceOnUse" color-interpolation-filters="sRGB">
<feFlood flood-opacity="0" result="BackgroundImageFix"/>
<feBlend mode="normal" in="SourceGraphic" in2="BackgroundImageFix" result="shape"/>
<feTurbulence type="fractalNoise" baseFrequency="0.33783784508705139 0.33783784508705139" numOctaves="3" seed="6684" />
<feDisplacementMap in="shape" scale="0.43999999761581421" xChannelSelector="R" yChannelSelector="G" result="displacedImage" width="100%" height="100%" />
<feMerge result="effect1_texture_1046_14453">
<feMergeNode in="displacedImage"/>
</feMerge>
</filter>
</defs>
</svg>
