<svg width="466" height="337" viewBox="0 0 466 337" fill="none" xmlns="http://www.w3.org/2000/svg">
<defs>
  <linearGradient id="grad" x1="420" y1="0" x2="80" y2="337" gradientUnits="userSpaceOnUse">
    <stop offset="0%" stop-color="#5EA5D5"/>
    <stop offset="40%" stop-color="#437CA4"/>
    <stop offset="100%" stop-color="#0E4772"/>
  </linearGradient>
</defs>
<path d="M250.287 241.708C250.287 238.919 248.92 235.073 244.432 230.41C239.97 225.773 233.212 221.221 224.805 217.439C207.759 209.773 187.069 206.639 171.829 209.917C163.998 211.601 158.959 215.157 155.387 220.056C151.58 225.275 148.837 232.878 147.489 243.365C145.517 258.712 152.819 275.178 169.029 291.565C182.173 304.853 200.643 310.855 219.82 310.916C239.134 310.978 257.635 304.979 269.609 296.217C282.897 286.493 291.957 269.817 297.177 260.403C321.195 217.089 356.095 154.812 384.979 103.382C399.424 77.6628 412.368 54.6491 421.701 38.0654C426.368 29.7736 430.132 23.0893 432.729 18.4775C434.028 16.1717 435.035 14.3842 435.718 13.1729C436.059 12.5672 436.319 12.1051 436.494 11.7949C436.581 11.64 436.647 11.5228 436.691 11.4443C436.713 11.4051 436.73 11.3752 436.741 11.3555C436.747 11.3456 436.751 11.338 436.754 11.333C436.755 11.3309 436.757 11.3281 436.757 11.3281C436.757 11.3281 436.758 11.3258 448.084 17.708C459.204 23.9743 459.405 24.0886 459.408 24.0918C459.408 24.0918 459.406 24.0952 459.405 24.0977C459.402 24.1026 459.398 24.1103 459.392 24.1201C459.381 24.1398 459.365 24.169 459.343 24.208C459.298 24.2863 459.233 24.4037 459.145 24.5586C458.971 24.8684 458.711 25.3295 458.37 25.9346C457.688 27.145 456.682 28.9316 455.384 31.2363C452.787 35.8461 449.024 42.5281 444.359 50.8174C435.029 67.3961 422.088 90.4025 407.648 116.113C378.764 167.543 343.895 229.766 319.915 273.013C315.28 281.371 303.673 303.508 284.964 317.199C267.937 329.659 243.845 336.992 219.737 336.915C195.492 336.837 169.713 329.228 150.545 309.851C131.517 290.615 118.289 266.602 121.701 240.051C123.37 227.063 127.087 214.736 134.381 204.735C141.909 194.413 152.613 187.456 166.361 184.499C188.313 179.777 214.718 184.394 235.47 193.727C245.962 198.445 255.779 204.705 263.166 212.381C270.528 220.031 276.287 229.997 276.287 241.708C276.287 262.14 264.339 276.953 247.558 284.994C231.304 292.783 210.261 294.575 188.51 291.04L175.678 288.954L179.848 263.291L192.679 265.376C210.928 268.341 226.231 266.383 236.323 261.547C245.888 256.963 250.287 250.275 250.287 241.708ZM465.791 12.7646L459.409 24.0898L448.084 17.708L436.758 11.3262L443.14 0L465.791 12.7646Z" fill="url(#grad)"/>
<path d="M91.8689 49.9978C158.325 28.8921 227.496 38.2557 290.397 57.9353C307.617 63.5415 324.444 70.2806 340.607 78.2078C323.757 71.8726 306.507 66.7412 289.072 62.6941C225.671 48.5407 157.185 45.0929 98.3513 67.4177C46.2912 85.2927 -0.704029 138.173 36.7478 182.048C57.1422 210.51 86.9962 231.361 120.008 245.161C122.228 246.093 124.462 246.997 126.71 247.872C126.665 245.527 126.76 243.147 127.008 240.733C127.775 220.173 141.787 192.37 167.127 188.057C188.522 183.317 209.418 186.544 228.97 193.526C247.169 201.326 271.619 210.763 274.975 241.708C276.322 262.983 257.711 281.958 240.521 287.153C222.971 293.376 205.305 293.288 188.554 290.766C132.375 282 109.929 269.129 109.929 269.129C73.6594 254.004 39.4049 229.882 16.4265 196.369C-3.46656 170.949 -6.7841 127.607 14.7712 101.225C34.6999 74.4496 63.4956 60.004 91.8689 49.9978ZM251.598 241.708C249.686 219.838 201.538 200.673 171.063 206.359C154.357 208.667 144.887 223.789 142.182 242.682C141.56 246.173 141.413 249.7 141.674 253.226C158.208 258.649 175.319 262.7 192.636 265.649C219.166 270.92 252.435 263.233 251.598 241.708Z" fill="url(#grad)"/>
</svg>
