<svg width="200" height="200" viewBox="0 0 200 200" fill="none" xmlns="http://www.w3.org/2000/svg">
<path d="M169.884 87.2212C167.737 95.6 164.981 103.226 163.06 108.715C155.629 129.946 141.587 164.022 120.891 176.833C100.195 189.645 121.161 164.941 101.429 151.696C97.03 148.743 92.0135 145.422 86.7656 141.944V131.416H109.427C117.488 131.416 124.024 124.882 124.024 116.821L124.025 87.2212H169.884ZM83.5879 24.3774C120.891 15.1487 149.5 23.8805 164.682 39.7856C170.198 45.5651 172.563 53.1316 173.051 61.272H112.674C104.613 61.272 98.0779 67.8066 98.0771 75.8677L98.0742 105.466H75.4121L75.0351 105.471C67.2729 105.668 61.0167 111.925 60.8203 119.687L60.8164 120.064V124.506C51.6286 118.163 43.8094 112.458 39.7998 108.715C27.6358 97.3622 23.5818 75.4666 30.0693 62.4917C36.5568 49.5168 46.7322 33.4955 83.5879 24.3774Z" fill="url(#paint0_linear_995_5588)"/>
<defs>
<linearGradient id="paint0_linear_995_5588" x1="135.999" y1="169.436" x2="70.8416" y2="9.26784" gradientUnits="userSpaceOnUse">
<stop stop-color="#23264E"/>
<stop offset="1" stop-color="#545675"/>
</linearGradient>
</defs>
</svg>
