<svg width="28" height="28" viewBox="0 0 28 28" fill="none" xmlns="http://www.w3.org/2000/svg">
<path d="M5.83333 24.5C5.19167 24.5 4.64236 24.2715 4.18542 23.8146C3.72847 23.3576 3.5 22.8083 3.5 22.1667V5.83333C3.5 5.19167 3.72847 4.64236 4.18542 4.18542C4.64236 3.72847 5.19167 3.5 5.83333 3.5H14C14.3306 3.5 14.6076 3.61181 14.8313 3.83542C15.0549 4.05903 15.1667 4.33611 15.1667 4.66667C15.1667 4.99722 15.0549 5.27431 14.8313 5.49792C14.6076 5.72153 14.3306 5.83333 14 5.83333H5.83333V22.1667H22.1667V14C22.1667 13.6694 22.2785 13.3924 22.5021 13.1688C22.7257 12.9451 23.0028 12.8333 23.3333 12.8333C23.6639 12.8333 23.941 12.9451 24.1646 13.1688C24.3882 13.3924 24.5 13.6694 24.5 14V22.1667C24.5 22.8083 24.2715 23.3576 23.8146 23.8146C23.3576 24.2715 22.8083 24.5 22.1667 24.5H5.83333ZM7 19.8333H21L16.625 14L13.125 18.6667L10.5 15.1667L7 19.8333ZM19.8333 8.16667H18.6667C18.3361 8.16667 18.059 8.05486 17.8354 7.83125C17.6118 7.60764 17.5 7.33056 17.5 7C17.5 6.66944 17.6118 6.39236 17.8354 6.16875C18.059 5.94514 18.3361 5.83333 18.6667 5.83333H19.8333V4.66667C19.8333 4.33611 19.9451 4.05903 20.1687 3.83542C20.3924 3.61181 20.6694 3.5 21 3.5C21.3306 3.5 21.6076 3.61181 21.8313 3.83542C22.0549 4.05903 22.1667 4.33611 22.1667 4.66667V5.83333H23.3333C23.6639 5.83333 23.941 5.94514 24.1646 6.16875C24.3882 6.39236 24.5 6.66944 24.5 7C24.5 7.33056 24.3882 7.60764 24.1646 7.83125C23.941 8.05486 23.6639 8.16667 23.3333 8.16667H22.1667V9.33333C22.1667 9.66389 22.0549 9.94097 21.8313 10.1646C21.6076 10.3882 21.3306 10.5 21 10.5C20.6694 10.5 20.3924 10.3882 20.1687 10.1646C19.9451 9.94097 19.8333 9.66389 19.8333 9.33333V8.16667Z" fill="#5E6871"/>
</svg>
