<svg width="24" height="24" viewBox="0 0 24 24" fill="none" xmlns="http://www.w3.org/2000/svg">
<mask id="mask0_562_7981" style="mask-type:alpha" maskUnits="userSpaceOnUse" x="0" y="0" width="24" height="24">
<rect width="24" height="24" fill="#D9D9D9"/>
</mask>
<g mask="url(#mask0_562_7981)">
<path d="M12 21.4805C11.6319 21.4805 11.319 21.3517 11.0615 21.094C10.8039 20.8364 10.675 20.5235 10.675 20.1555V13.3393H3.84453C3.47653 13.3393 3.1637 13.2104 2.90603 12.9528C2.64836 12.6951 2.51953 12.3823 2.51953 12.0143C2.51953 11.6461 2.64836 11.3332 2.90603 11.0755C3.1637 10.8179 3.47653 10.689 3.84453 10.689H10.6608V3.84453C10.6608 3.47653 10.7896 3.1637 11.0473 2.90603C11.3049 2.64836 11.6178 2.51953 11.9858 2.51953C12.3539 2.51953 12.6669 2.64836 12.9245 2.90603C13.1822 3.1637 13.311 3.47653 13.311 3.84453V10.675H20.1555C20.5235 10.675 20.8364 10.8039 21.094 11.0615C21.3517 11.319 21.4805 11.6319 21.4805 12C21.4805 12.3682 21.3517 12.681 21.094 12.9385C20.8364 13.1962 20.5235 13.325 20.1555 13.325H13.325V20.1555C13.325 20.5235 13.1962 20.8364 12.9385 21.094C12.681 21.3517 12.3682 21.4805 12 21.4805Z" fill="white"/>
</g>
</svg>
