<svg width="20" height="20" viewBox="0 0 20 20" fill="none" xmlns="http://www.w3.org/2000/svg">
<mask id="mask0_863_2165" style="mask-type:alpha" maskUnits="userSpaceOnUse" x="0" y="0" width="20" height="20">
<rect width="20" height="20" fill="#91989F"/>
</mask>
<g mask="url(#mask0_863_2165)">
<path d="M12.918 9.16666C13.2652 9.16666 13.5603 9.04514 13.8034 8.80208C14.0464 8.55903 14.168 8.26389 14.168 7.91666C14.168 7.56944 14.0464 7.2743 13.8034 7.03125C13.5603 6.78819 13.2652 6.66666 12.918 6.66666C12.5707 6.66666 12.2756 6.78819 12.0326 7.03125C11.7895 7.2743 11.668 7.56944 11.668 7.91666C11.668 8.26389 11.7895 8.55903 12.0326 8.80208C12.2756 9.04514 12.5707 9.16666 12.918 9.16666ZM7.08464 9.16666C7.43186 9.16666 7.727 9.04514 7.97005 8.80208C8.21311 8.55903 8.33464 8.26389 8.33464 7.91666C8.33464 7.56944 8.21311 7.2743 7.97005 7.03125C7.727 6.78819 7.43186 6.66666 7.08464 6.66666C6.73741 6.66666 6.44227 6.78819 6.19922 7.03125C5.95616 7.2743 5.83464 7.56944 5.83464 7.91666C5.83464 8.26389 5.95616 8.55903 6.19922 8.80208C6.44227 9.04514 6.73741 9.16666 7.08464 9.16666ZM6.7513 17.6771C5.73741 17.2396 4.85547 16.6458 4.10547 15.8958C3.35547 15.1458 2.76172 14.2639 2.32422 13.25C1.88672 12.2361 1.66797 11.1528 1.66797 10C1.66797 8.84722 1.88672 7.76389 2.32422 6.75C2.76172 5.73611 3.35547 4.85416 4.10547 4.10416C4.85547 3.35416 5.73741 2.76041 6.7513 2.32291C7.76519 1.88541 8.84852 1.66666 10.0013 1.66666C11.1541 1.66666 12.2374 1.88541 13.2513 2.32291C14.2652 2.76041 15.1471 3.35416 15.8971 4.10416C16.6471 4.85416 17.2409 5.73611 17.6784 6.75C18.1159 7.76389 18.3346 8.84722 18.3346 10C18.3346 11.1528 18.1159 12.2361 17.6784 13.25C17.2409 14.2639 16.6471 15.1458 15.8971 15.8958C15.1471 16.6458 14.2652 17.2396 13.2513 17.6771C12.2374 18.1146 11.1541 18.3333 10.0013 18.3333C8.84852 18.3333 7.76519 18.1146 6.7513 17.6771ZM14.7305 14.7292C16.0221 13.4375 16.668 11.8611 16.668 10C16.668 8.13889 16.0221 6.5625 14.7305 5.27083C13.4388 3.97916 11.8624 3.33333 10.0013 3.33333C8.14019 3.33333 6.5638 3.97916 5.27214 5.27083C3.98047 6.5625 3.33464 8.13889 3.33464 10C3.33464 11.8611 3.98047 13.4375 5.27214 14.7292C6.5638 16.0208 8.14019 16.6667 10.0013 16.6667C11.8624 16.6667 13.4388 16.0208 14.7305 14.7292ZM10.0013 14.5833C10.8069 14.5833 11.5499 14.3889 12.2305 14C12.911 13.6111 13.4596 13.0833 13.8763 12.4167C13.9596 12.25 13.9527 12.0833 13.8555 11.9167C13.7582 11.75 13.6124 11.6667 13.418 11.6667H6.58464C6.39019 11.6667 6.24436 11.75 6.14714 11.9167C6.04991 12.0833 6.04297 12.25 6.1263 12.4167C6.54297 13.0833 7.09505 13.6111 7.78255 14C8.47005 14.3889 9.20964 14.5833 10.0013 14.5833Z" fill="#91989F"/>
</g>
</svg>
