<svg width="20" height="20" viewBox="0 0 20 20" fill="none" xmlns="http://www.w3.org/2000/svg">
<mask id="mask0_864_2543" style="mask-type:alpha" maskUnits="userSpaceOnUse" x="0" y="0" width="20" height="20">
<rect width="20" height="20" fill="#D9D9D9"/>
</mask>
<g mask="url(#mask0_864_2543)">
<path d="M12.9167 9.16669C13.264 9.16669 13.5591 9.04516 13.8022 8.8021C14.0452 8.55905 14.1667 8.26391 14.1667 7.91669C14.1667 7.56946 14.0452 7.27432 13.8022 7.03127C13.5591 6.78821 13.264 6.66669 12.9167 6.66669C12.5695 6.66669 12.2744 6.78821 12.0313 7.03127C11.7883 7.27432 11.6667 7.56946 11.6667 7.91669C11.6667 8.26391 11.7883 8.55905 12.0313 8.8021C12.2744 9.04516 12.5695 9.16669 12.9167 9.16669ZM7.08341 9.16669C7.43064 9.16669 7.72577 9.04516 7.96883 8.8021C8.21189 8.55905 8.33341 8.26391 8.33341 7.91669C8.33341 7.56946 8.21189 7.27432 7.96883 7.03127C7.72577 6.78821 7.43064 6.66669 7.08341 6.66669C6.73619 6.66669 6.44105 6.78821 6.198 7.03127C5.95494 7.27432 5.83341 7.56946 5.83341 7.91669C5.83341 8.26391 5.95494 8.55905 6.198 8.8021C6.44105 9.04516 6.73619 9.16669 7.08341 9.16669ZM6.75008 17.6771C5.73619 17.2396 4.85425 16.6459 4.10425 15.8959C3.35425 15.1459 2.7605 14.2639 2.323 13.25C1.8855 12.2361 1.66675 11.1528 1.66675 10C1.66675 8.84724 1.8855 7.76391 2.323 6.75002C2.7605 5.73613 3.35425 4.85419 4.10425 4.10419C4.85425 3.35419 5.73619 2.76044 6.75008 2.32294C7.76397 1.88544 8.8473 1.66669 10.0001 1.66669C11.1529 1.66669 12.2362 1.88544 13.2501 2.32294C14.264 2.76044 15.1459 3.35419 15.8959 4.10419C16.6459 4.85419 17.2397 5.73613 17.6772 6.75002C18.1147 7.76391 18.3334 8.84724 18.3334 10C18.3334 11.1528 18.1147 12.2361 17.6772 13.25C17.2397 14.2639 16.6459 15.1459 15.8959 15.8959C15.1459 16.6459 14.264 17.2396 13.2501 17.6771C12.2362 18.1146 11.1529 18.3334 10.0001 18.3334C8.8473 18.3334 7.76397 18.1146 6.75008 17.6771ZM10.0001 14.5834C10.8056 14.5834 11.5487 14.3889 12.2292 14C12.9098 13.6111 13.4584 13.0834 13.8751 12.4167C13.9584 12.25 13.9515 12.0834 13.8542 11.9167C13.757 11.75 13.6112 11.6667 13.4167 11.6667H6.58341C6.38897 11.6667 6.24314 11.75 6.14591 11.9167C6.04869 12.0834 6.04175 12.25 6.12508 12.4167C6.54175 13.0834 7.09383 13.6111 7.78133 14C8.46883 14.3889 9.20841 14.5834 10.0001 14.5834Z" fill="white"/>
</g>
</svg>
