<svg width="20" height="20" viewBox="0 0 20 20" fill="none" xmlns="http://www.w3.org/2000/svg">
<mask id="mask0_863_2171" style="mask-type:alpha" maskUnits="userSpaceOnUse" x="0" y="0" width="20" height="20">
<rect width="20" height="20" fill="#91989F"/>
</mask>
<g mask="url(#mask0_863_2171)">
<path d="M8.1263 12.9167H11.8763C12.0569 12.9167 12.2062 12.8576 12.3242 12.7396C12.4423 12.6215 12.5013 12.4722 12.5013 12.2917C12.5013 12.1111 12.4423 11.9618 12.3242 11.8437C12.2062 11.7257 12.0569 11.6667 11.8763 11.6667H8.1263C7.94575 11.6667 7.79644 11.7257 7.67839 11.8437C7.56033 11.9618 7.5013 12.1111 7.5013 12.2917C7.5013 12.4722 7.56033 12.6215 7.67839 12.7396C7.79644 12.8576 7.94575 12.9167 8.1263 12.9167ZM6.7513 17.6771C5.73741 17.2396 4.85547 16.6458 4.10547 15.8958C3.35547 15.1458 2.76172 14.2639 2.32422 13.25C1.88672 12.2361 1.66797 11.1528 1.66797 10C1.66797 8.84722 1.88672 7.76389 2.32422 6.75C2.76172 5.73611 3.35547 4.85416 4.10547 4.10416C4.85547 3.35416 5.73741 2.76041 6.7513 2.32291C7.76519 1.88541 8.84852 1.66666 10.0013 1.66666C11.1541 1.66666 12.2374 1.88541 13.2513 2.32291C14.2652 2.76041 15.1471 3.35416 15.8971 4.10416C16.6471 4.85416 17.2409 5.73611 17.6784 6.75C18.1159 7.76389 18.3346 8.84722 18.3346 10C18.3346 11.1528 18.1159 12.2361 17.6784 13.25C17.2409 14.2639 16.6471 15.1458 15.8971 15.8958C15.1471 16.6458 14.2652 17.2396 13.2513 17.6771C12.2374 18.1146 11.1541 18.3333 10.0013 18.3333C8.84852 18.3333 7.76519 18.1146 6.7513 17.6771ZM14.7305 14.7292C16.0221 13.4375 16.668 11.8611 16.668 10C16.668 8.13889 16.0221 6.5625 14.7305 5.27083C13.4388 3.97916 11.8624 3.33333 10.0013 3.33333C8.14019 3.33333 6.5638 3.97916 5.27214 5.27083C3.98047 6.5625 3.33464 8.13889 3.33464 10C3.33464 11.8611 3.98047 13.4375 5.27214 14.7292C6.5638 16.0208 8.14019 16.6667 10.0013 16.6667C11.8624 16.6667 13.4388 16.0208 14.7305 14.7292ZM7.08464 7.08333C6.76519 7.08333 6.45964 7.14583 6.16797 7.27083C5.8763 7.39583 5.61936 7.57639 5.39714 7.8125C5.25825 7.96528 5.1888 8.13541 5.1888 8.32291C5.1888 8.51041 5.26519 8.65278 5.41797 8.75C5.55686 8.84722 5.70964 8.88194 5.8763 8.85416C6.04297 8.82639 6.19575 8.75694 6.33464 8.64583C6.44575 8.54861 6.5638 8.47569 6.6888 8.42708C6.8138 8.37847 6.94575 8.35416 7.08464 8.35416C7.22352 8.35416 7.35547 8.38194 7.48047 8.4375C7.60547 8.49305 7.72352 8.5625 7.83464 8.64583C7.97352 8.75694 8.1263 8.82291 8.29297 8.84375C8.45964 8.86458 8.61241 8.82639 8.7513 8.72916C8.90408 8.63194 8.98047 8.48958 8.98047 8.30208C8.98047 8.11458 8.91102 7.95139 8.77214 7.8125C8.54991 7.57639 8.29297 7.39583 8.0013 7.27083C7.70964 7.14583 7.40408 7.08333 7.08464 7.08333ZM12.918 7.08333C12.5985 7.08333 12.286 7.14583 11.9805 7.27083C11.6749 7.39583 11.411 7.57639 11.1888 7.8125C11.0499 7.96528 10.9874 8.13194 11.0013 8.3125C11.0152 8.49305 11.0985 8.63889 11.2513 8.75C11.3902 8.84722 11.543 8.88541 11.7096 8.86458C11.8763 8.84375 12.0291 8.77778 12.168 8.66666C12.2791 8.58333 12.3971 8.51389 12.5221 8.45833C12.6471 8.40278 12.7791 8.375 12.918 8.375C13.0707 8.375 13.2096 8.40278 13.3346 8.45833C13.4596 8.51389 13.5777 8.58333 13.6888 8.66666C13.8277 8.77778 13.977 8.84375 14.1367 8.86458C14.2964 8.88541 14.4457 8.84722 14.5846 8.75C14.7374 8.65278 14.8138 8.51041 14.8138 8.32291C14.8138 8.13541 14.7444 7.96528 14.6055 7.8125C14.3832 7.57639 14.1263 7.39583 13.8346 7.27083C13.543 7.14583 13.2374 7.08333 12.918 7.08333Z" fill="#91989F"/>
</g>
</svg>
