<svg width="20" height="20" viewBox="0 0 20 20" fill="none" xmlns="http://www.w3.org/2000/svg">
<mask id="mask0_864_2536" style="mask-type:alpha" maskUnits="userSpaceOnUse" x="0" y="0" width="20" height="20">
<rect width="20" height="20" fill="#D9D9D9"/>
</mask>
<g mask="url(#mask0_864_2536)">
<path d="M8.14591 15C8.38202 15 8.60772 14.9584 8.823 14.875C9.03828 14.7917 9.25008 14.6945 9.45841 14.5834C9.54175 14.5278 9.62855 14.4792 9.71883 14.4375C9.80911 14.3959 9.90286 14.375 10.0001 14.375C10.1112 14.375 10.2917 14.4445 10.5417 14.5834C10.7501 14.6945 10.9619 14.7917 11.1772 14.875C11.3924 14.9584 11.6181 15 11.8542 15C12.5487 15 13.1077 14.7535 13.5313 14.2604C13.9549 13.7674 14.1667 13.1111 14.1667 12.2917C14.1667 11.2917 13.823 10.5209 13.1355 9.97919C12.448 9.43752 11.4584 9.16669 10.1667 9.16669H9.83341C8.54175 9.16669 7.55216 9.43752 6.86466 9.97919C6.17716 10.5209 5.83341 11.2917 5.83341 12.2917C5.83341 13.1111 6.04522 13.7674 6.46883 14.2604C6.89244 14.7535 7.45147 15 8.14591 15ZM8.12508 13.75C7.79175 13.75 7.53133 13.6215 7.34383 13.3646C7.15633 13.1077 7.06258 12.75 7.06258 12.2917C7.06258 11.6528 7.28827 11.1806 7.73966 10.875C8.19105 10.5695 8.88897 10.4167 9.83341 10.4167H10.1459C11.0904 10.4167 11.7848 10.5695 12.2292 10.875C12.6737 11.1806 12.8959 11.6528 12.8959 12.2917C12.8959 12.75 12.8056 13.1077 12.6251 13.3646C12.4445 13.6285 12.1876 13.75 11.8542 13.75C11.6876 13.75 11.4515 13.6667 11.1459 13.5C10.9654 13.3889 10.7813 13.2986 10.5938 13.2292C10.4063 13.1597 10.2084 13.125 10.0001 13.125C9.79175 13.125 9.59036 13.1597 9.39591 13.2292C9.20147 13.2986 9.01397 13.3889 8.83341 13.5C8.7223 13.5695 8.60772 13.6285 8.48966 13.6771C8.37161 13.7257 8.25008 13.75 8.12508 13.75ZM8.27091 6.70835C8.38202 6.55558 8.42369 6.39585 8.39591 6.22919C8.36814 6.06252 8.27786 5.93058 8.12508 5.83335C7.9723 5.73613 7.81258 5.70488 7.64591 5.7396C7.47925 5.77433 7.34036 5.86808 7.22925 6.02085C6.97925 6.3403 6.69453 6.61807 6.37508 6.85419C6.05564 7.0903 5.71536 7.29863 5.35425 7.47919C5.20147 7.56252 5.08689 7.68405 5.0105 7.84377C4.93411 8.00349 4.93064 8.16669 5.00008 8.33335C5.06953 8.50002 5.18411 8.61113 5.34383 8.66669C5.50355 8.72224 5.66675 8.7153 5.83341 8.64585C6.31953 8.40974 6.76744 8.13544 7.17716 7.82294C7.58689 7.51044 7.95147 7.13891 8.27091 6.70835ZM11.7292 6.70835C12.0487 7.12502 12.4098 7.4896 12.8126 7.8021C13.2154 8.1146 13.6529 8.38891 14.1251 8.62502C14.2917 8.70835 14.4619 8.72224 14.6355 8.66669C14.8091 8.61113 14.9306 8.50002 15.0001 8.33335C15.0695 8.16669 15.0661 8.00002 14.9897 7.83335C14.9133 7.66669 14.7917 7.54863 14.6251 7.47919C14.264 7.31252 13.9237 7.11113 13.6042 6.87502C13.2848 6.63891 13.007 6.36113 12.7709 6.04169C12.6598 5.88891 12.5209 5.79169 12.3542 5.75002C12.1876 5.70835 12.0279 5.73613 11.8751 5.83335C11.7223 5.93058 11.632 6.06252 11.6042 6.22919C11.5765 6.39585 11.6181 6.55558 11.7292 6.70835ZM6.75008 17.6771C5.73619 17.2396 4.85425 16.6459 4.10425 15.8959C3.35425 15.1459 2.7605 14.2639 2.323 13.25C1.8855 12.2361 1.66675 11.1528 1.66675 10C1.66675 8.84724 1.8855 7.76391 2.323 6.75002C2.7605 5.73613 3.35425 4.85419 4.10425 4.10419C4.85425 3.35419 5.73619 2.76044 6.75008 2.32294C7.76397 1.88544 8.8473 1.66669 10.0001 1.66669C11.1529 1.66669 12.2362 1.88544 13.2501 2.32294C14.264 2.76044 15.1459 3.35419 15.8959 4.10419C16.6459 4.85419 17.2397 5.73613 17.6772 6.75002C18.1147 7.76391 18.3334 8.84724 18.3334 10C18.3334 11.1528 18.1147 12.2361 17.6772 13.25C17.2397 14.2639 16.6459 15.1459 15.8959 15.8959C15.1459 16.6459 14.264 17.2396 13.2501 17.6771C12.2362 18.1146 11.1529 18.3334 10.0001 18.3334C8.8473 18.3334 7.76397 18.1146 6.75008 17.6771Z" fill="white"/>
</g>
</svg>
