<svg width="20" height="20" viewBox="0 0 20 20" fill="none" xmlns="http://www.w3.org/2000/svg">
<mask id="mask0_863_2170" style="mask-type:alpha" maskUnits="userSpaceOnUse" x="0" y="0" width="20" height="20">
<rect width="20" height="20" fill="#91989F"/>
</mask>
<g mask="url(#mask0_863_2170)">
<path d="M9.41797 15H10.5846C11.3485 15 11.9978 14.7569 12.5326 14.2708C13.0673 13.7847 13.3346 13.1944 13.3346 12.5C13.3346 11.8056 13.0673 11.2153 12.5326 10.7292C11.9978 10.2431 11.3485 10 10.5846 10H9.41797C8.65408 10 8.00477 10.2431 7.47005 10.7292C6.93533 11.2153 6.66797 11.8056 6.66797 12.5C6.66797 13.1944 6.93533 13.7847 7.47005 14.2708C8.00477 14.7569 8.65408 15 9.41797 15ZM9.41797 13.75C9.0013 13.75 8.64714 13.6285 8.35547 13.3854C8.0638 13.1424 7.91797 12.8472 7.91797 12.5C7.91797 12.1528 8.0638 11.8576 8.35547 11.6146C8.64714 11.3715 9.0013 11.25 9.41797 11.25H10.5846C11.0013 11.25 11.3555 11.3715 11.6471 11.6146C11.9388 11.8576 12.0846 12.1528 12.0846 12.5C12.0846 12.8472 11.9388 13.1424 11.6471 13.3854C11.3555 13.6285 11.0013 13.75 10.5846 13.75H9.41797ZM6.66797 8.33333C7.2513 8.33333 7.77561 8.16666 8.24089 7.83333C8.70616 7.5 8.99436 7.04861 9.10547 6.47916C9.13325 6.3125 9.09158 6.16319 8.98047 6.03125C8.86936 5.8993 8.72352 5.83333 8.54297 5.83333C8.39019 5.83333 8.2513 5.87153 8.1263 5.94791C8.0013 6.0243 7.90408 6.13889 7.83464 6.29166C7.73741 6.52778 7.58464 6.71875 7.3763 6.86458C7.16797 7.01041 6.93186 7.08333 6.66797 7.08333H5.6263C5.44575 7.08333 5.29644 7.14236 5.17839 7.26041C5.06033 7.37847 5.0013 7.52778 5.0013 7.70833C5.0013 7.88889 5.06033 8.03819 5.17839 8.15625C5.29644 8.2743 5.44575 8.33333 5.6263 8.33333H6.66797ZM13.3346 8.33333H14.3763C14.5569 8.33333 14.7062 8.2743 14.8242 8.15625C14.9423 8.03819 15.0013 7.88889 15.0013 7.70833C15.0013 7.52778 14.9423 7.37847 14.8242 7.26041C14.7062 7.14236 14.5569 7.08333 14.3763 7.08333H13.3346C13.0707 7.08333 12.8346 7.01041 12.6263 6.86458C12.418 6.71875 12.2652 6.52778 12.168 6.29166C12.0985 6.13889 12.0013 6.0243 11.8763 5.94791C11.7513 5.87153 11.6124 5.83333 11.4596 5.83333C11.2791 5.83333 11.1332 5.89583 11.0221 6.02083C10.911 6.14583 10.8694 6.29166 10.8971 6.45833C11.0082 7.02778 11.2964 7.48264 11.7617 7.82291C12.227 8.16319 12.7513 8.33333 13.3346 8.33333ZM6.7513 17.6771C5.73741 17.2396 4.85547 16.6458 4.10547 15.8958C3.35547 15.1458 2.76172 14.2639 2.32422 13.25C1.88672 12.2361 1.66797 11.1528 1.66797 10C1.66797 8.84722 1.88672 7.76389 2.32422 6.75C2.76172 5.73611 3.35547 4.85416 4.10547 4.10416C4.85547 3.35416 5.73741 2.76041 6.7513 2.32291C7.76519 1.88541 8.84852 1.66666 10.0013 1.66666C11.1541 1.66666 12.2374 1.88541 13.2513 2.32291C14.2652 2.76041 15.1471 3.35416 15.8971 4.10416C16.6471 4.85416 17.2409 5.73611 17.6784 6.75C18.1159 7.76389 18.3346 8.84722 18.3346 10C18.3346 11.1528 18.1159 12.2361 17.6784 13.25C17.2409 14.2639 16.6471 15.1458 15.8971 15.8958C15.1471 16.6458 14.2652 17.2396 13.2513 17.6771C12.2374 18.1146 11.1541 18.3333 10.0013 18.3333C8.84852 18.3333 7.76519 18.1146 6.7513 17.6771ZM14.7305 14.7292C16.0221 13.4375 16.668 11.8611 16.668 10C16.668 8.13889 16.0221 6.5625 14.7305 5.27083C13.4388 3.97916 11.8624 3.33333 10.0013 3.33333C8.14019 3.33333 6.5638 3.97916 5.27214 5.27083C3.98047 6.5625 3.33464 8.13889 3.33464 10C3.33464 11.8611 3.98047 13.4375 5.27214 14.7292C6.5638 16.0208 8.14019 16.6667 10.0013 16.6667C11.8624 16.6667 13.4388 16.0208 14.7305 14.7292Z" fill="#91989F"/>
</g>
</svg>
