<svg width="24" height="24" viewBox="0 0 24 24" fill="none" xmlns="http://www.w3.org/2000/svg">
<path d="M8.88595 3.00074C8.14951 2.97699 7.52143 3.52828 7.44845 4.26148L7.00411 8.72144C6.95505 9.21601 7.31715 9.65767 7.81173 9.7068C8.30615 9.75563 8.74699 9.39363 8.79611 8.89918L9.08322 6.02515C10.4745 7.81039 11.5023 9.24541 12.1418 11.1638C12.8356 13.2454 13.094 14.9793 12.6701 19.4187C12.6232 19.9132 12.9863 20.3527 13.4807 20.4002C13.9751 20.4472 14.4145 20.0848 14.4621 19.5906C14.8976 15.0308 14.6548 13.0137 13.8489 10.5955C13.0978 8.34216 11.8769 6.67866 10.4494 4.85133L13.6731 4.95679C14.1695 4.97267 14.5854 4.58312 14.6018 4.08668C14.6178 3.58996 14.2274 3.17311 13.7307 3.15699L8.88595 3.00074Z" fill="#23264E"/>
</svg>
