<svg width="24" height="24" viewBox="0 0 24 24" fill="none" xmlns="http://www.w3.org/2000/svg">
<path d="M14.7898 3.00074C15.5263 2.97699 16.1544 3.52828 16.2273 4.26148L16.6717 8.72144C16.7207 9.21601 16.3586 9.65767 15.8641 9.7068C15.3696 9.75563 14.9288 9.39363 14.8797 8.89918L14.5926 6.02515C13.2013 7.81039 12.1734 9.24541 11.534 11.1638C10.8402 13.2454 10.5817 14.9793 11.0056 19.4187C11.0526 19.9132 10.6895 20.3527 10.1951 20.4002C9.70072 20.4472 9.26129 20.0848 9.21363 19.5906C8.77821 15.0308 9.021 13.0137 9.82692 10.5955C10.578 8.34216 11.7989 6.67866 13.2263 4.85133L10.0027 4.95679C9.50624 4.97267 9.09033 4.58312 9.07398 4.08668C9.05796 3.58996 9.44835 3.17311 9.94508 3.15699L14.7898 3.00074Z" fill="#23264E"/>
</svg>
