<svg width="21" height="21" viewBox="0 0 21 21" fill="none" xmlns="http://www.w3.org/2000/svg">
<mask id="mask0_703_10361" style="mask-type:alpha" maskUnits="userSpaceOnUse" x="0" y="0" width="21" height="21">
<rect width="21" height="21" fill="#353B40"/>
</mask>
<g mask="url(#mask0_703_10361)">
<path d="M10.0414 12.6657L6.86953 9.49387C6.82578 9.45012 6.79297 9.40273 6.77109 9.35168C6.74922 9.30064 6.73828 9.24596 6.73828 9.18762C6.73828 9.07096 6.77839 8.96887 6.85859 8.88137C6.9388 8.79387 7.04453 8.75012 7.17578 8.75012H13.8258C13.957 8.75012 14.0628 8.79387 14.143 8.88137C14.2232 8.96887 14.2633 9.07096 14.2633 9.18762C14.2633 9.21679 14.2195 9.31887 14.132 9.49387L10.9602 12.6657C10.8872 12.7387 10.8143 12.7897 10.7414 12.8189C10.6685 12.848 10.5883 12.8626 10.5008 12.8626C10.4133 12.8626 10.3331 12.848 10.2602 12.8189C10.1872 12.7897 10.1143 12.7387 10.0414 12.6657Z" fill="white"/>
</g>
</svg>
