<svg xmlns="http://www.w3.org/2000/svg" width="152" height="170" viewBox="0 0 152 170" fill="none">
  <mask id="mask0_784_8164" style="mask-type:alpha" maskUnits="userSpaceOnUse" x="0" y="0" width="152" height="170">
    <rect width="152" height="170" fill="#D9D9D9"/>
  </mask>
  <g mask="url(#mask0_784_8164)">
    <circle cx="76" cy="38" r="38" fill="url(#paint0_radial_784_8164)"/>
    <circle cx="3.5514" cy="3.5514" r="3.5514" transform="matrix(0.919855 -0.392257 -0.392257 -0.919855 76.1445 62.8921)" fill="#E4E4E4"/>
    <circle cx="3.5514" cy="3.5514" r="3.5514" transform="matrix(0.919855 -0.392257 -0.392257 -0.919855 66.0391 70.9731)" fill="#E4E4E4"/>
    <circle cx="3.5514" cy="3.5514" r="3.5514" transform="matrix(0.919855 -0.392257 -0.392257 -0.919855 51.6055 62.5981)" fill="#E4E4E4"/>
    <circle cx="3.5514" cy="3.5514" r="3.5514" transform="matrix(0.919855 -0.392257 -0.392257 -0.919855 51.8984 49.7612)" fill="#E4E4E4"/>
    <circle cx="3.5514" cy="3.5514" r="3.5514" transform="matrix(0.919855 -0.392257 -0.392257 -0.919855 64.0156 56.8311)" fill="#E4E4E4"/>
    <ellipse cx="44" cy="163.5" rx="43" ry="5.5" fill="black" fill-opacity="0.19"/>
    <mask id="mask1_784_8164" style="mask-type:alpha" maskUnits="userSpaceOnUse" x="62" y="75" width="29" height="91">
      <path d="M88 75.0361C89.6569 75.0361 91 76.3793 91 78.0361C91 79.693 89.6569 81.0361 88 81.0361H87.5869C86.1518 85.0791 84.4769 90.4604 83.7695 95.2402C80.1964 119.387 80.5871 159.552 80.6475 164.319C80.6513 164.619 80.5194 164.898 80.2539 165.037C79.6898 165.333 78.4996 165.786 76.5 165.786C74.5004 165.786 73.3102 165.333 72.7461 165.037C72.4806 164.898 72.3487 164.619 72.3525 164.319C72.4129 159.552 72.8036 119.387 69.2305 95.2402C68.5231 90.4604 66.8482 85.0791 65.4131 81.0361H65C63.3431 81.0361 62 79.693 62 78.0361C62 76.3793 63.3431 75.0361 65 75.0361H88Z" fill="#FDB804"/>
    </mask>
    <g mask="url(#mask1_784_8164)">
      <path d="M63.8466 76.8573C63.5282 76.0526 64.3094 75.2056 65.1403 75.4476C67.9125 76.2548 72.8244 77.5134 76.5 77.5134C80.1756 77.5134 85.0875 76.2548 87.8597 75.4476C88.6906 75.2056 89.4718 76.0526 89.1534 76.8573C87.6947 80.5441 84.7678 88.4922 83.7692 95.2407C80.196 119.388 80.5872 159.555 80.6475 164.32C80.6513 164.62 80.5192 164.897 80.2536 165.037C79.6895 165.333 78.4996 165.786 76.5 165.786C74.5004 165.786 73.3105 165.333 72.7464 165.037C72.4808 164.897 72.3487 164.62 72.3525 164.32C72.4128 159.555 72.804 119.388 69.2308 95.2407C68.2322 88.4922 65.3053 80.5441 63.8466 76.8573Z" fill="#FDB804"/>
      <rect x="62" y="75.0361" width="29" height="6" rx="3" fill="#FDB804"/>
      <rect x="62" y="75.0361" width="15" height="91" fill="black" fill-opacity="0.08"/>
      <rect x="62" y="81.0361" width="28" height="8" fill="black" fill-opacity="0.06"/>
    </g>
  </g>
  <defs>
    <radialGradient id="paint0_radial_784_8164" cx="0" cy="0" r="1" gradientUnits="userSpaceOnUse" gradientTransform="translate(93.0515 3.06686) rotate(115.56) scale(77.2593 84.1614)">
      <stop stop-color="white"/>
      <stop offset="0.7" stop-color="white"/>
      <stop offset="0.7" stop-color="#F5F5F5"/>
      <stop offset="1" stop-color="#F5F5F5"/>
    </radialGradient>
  </defs>
</svg>
