<svg width="24" height="24" viewBox="0 0 24 24" fill="none" xmlns="http://www.w3.org/2000/svg">
<path d="M5.74529 8.57603C7.0111 8.42525 8.24583 8.53032 9.44948 8.89124C10.6531 9.25215 11.7301 9.85133 12.6804 10.6888C13.8183 11.6915 14.6447 12.9028 15.1594 14.3228C15.6742 15.7428 15.802 17.2049 15.5427 18.7091C15.501 18.9833 15.5467 19.2402 15.6799 19.4798C15.8131 19.7194 16.0176 19.8718 16.2933 19.937C16.569 20.0023 16.8239 19.9714 17.058 19.8445C17.292 19.7175 17.4362 19.5224 17.4904 19.2592C17.8325 17.3837 17.6963 15.5531 17.0817 13.7675C16.467 11.9818 15.4407 10.4554 14.0027 9.18825C12.8648 8.18552 11.588 7.46021 10.1722 7.01232C8.75641 6.56443 7.29725 6.41154 5.79472 6.55364L7.41452 4.7155C7.60184 4.50293 7.68696 4.26138 7.66988 3.99086C7.6528 3.72034 7.53797 3.49142 7.3254 3.3041C7.11282 3.11678 6.87128 3.03166 6.60076 3.04874C6.33024 3.06582 6.10132 3.18065 5.91399 3.39322L2.60829 7.14453C2.42097 7.35711 2.33585 7.59865 2.35293 7.86917C2.37001 8.13969 2.48484 8.36861 2.69741 8.55593L6.44872 11.8616C6.66129 12.049 6.90284 12.1341 7.17336 12.117C7.44388 12.0999 7.6728 11.9851 7.86012 11.7725C8.04745 11.5599 8.13257 11.3184 8.11549 11.0479C8.0984 10.7774 7.98358 10.5484 7.771 10.3611L5.74529 8.57603Z" fill="#23264E"/>
</svg>
