<svg width="24" height="24" viewBox="12 12 24 24" fill="none" xmlns="http://www.w3.org/2000/svg">
<path d="M22.6304 35.6666C22.1054 35.6666 21.6533 35.4916 21.2741 35.1416C20.8949 34.7916 20.6665 34.3638 20.5887 33.8583L20.3262 31.9333C20.0734 31.836 19.8352 31.7194 19.6116 31.5833C19.388 31.4471 19.1693 31.3013 18.9554 31.1458L17.147 31.9041C16.6609 32.118 16.1748 32.1374 15.6887 31.9624C15.2026 31.7874 14.8234 31.4763 14.5512 31.0291L13.1804 28.6374C12.9081 28.1902 12.8304 27.7138 12.947 27.2083C13.0637 26.7027 13.3262 26.2846 13.7345 25.9541L15.2804 24.7874C15.2609 24.6513 15.2512 24.5201 15.2512 24.3937V23.6062C15.2512 23.4798 15.2609 23.3485 15.2804 23.2124L13.7345 22.0458C13.3262 21.7152 13.0637 21.2971 12.947 20.7916C12.8304 20.286 12.9081 19.8096 13.1804 19.3624L14.5512 16.9708C14.8234 16.5235 15.2026 16.2124 15.6887 16.0374C16.1748 15.8624 16.6609 15.8819 17.147 16.0958L18.9554 16.8541C19.1693 16.6985 19.3929 16.5527 19.6262 16.4166C19.8595 16.2805 20.0929 16.1638 20.3262 16.0666L20.5887 14.1416C20.6665 13.636 20.8949 13.2083 21.2741 12.8583C21.6533 12.5083 22.1054 12.3333 22.6304 12.3333H25.372C25.897 12.3333 26.3491 12.5083 26.7283 12.8583C27.1074 13.2083 27.3359 13.636 27.4137 14.1416L27.6762 16.0666C27.929 16.1638 28.1672 16.2805 28.3908 16.4166C28.6144 16.5527 28.8331 16.6985 29.047 16.8541L30.8554 16.0958C31.3415 15.8819 31.8276 15.8624 32.3137 16.0374C32.7998 16.2124 33.179 16.5235 33.4512 16.9708L34.822 19.3624C35.0943 19.8096 35.172 20.286 35.0554 20.7916C34.9387 21.2971 34.6762 21.7152 34.2679 22.0458L32.722 23.2124C32.7415 23.3485 32.7512 23.4798 32.7512 23.6062V24.3937C32.7512 24.5201 32.7318 24.6513 32.6929 24.7874L34.2387 25.9541C34.647 26.2846 34.9095 26.7027 35.0262 27.2083C35.1429 27.7138 35.0651 28.1902 34.7929 28.6374L33.3929 31.0291C33.1206 31.4763 32.7415 31.7874 32.2554 31.9624C31.7693 32.1374 31.2831 32.118 30.797 31.9041L29.047 31.1458C28.8331 31.3013 28.6095 31.4471 28.3762 31.5833C28.1429 31.7194 27.9095 31.836 27.6762 31.9333L27.4137 33.8583C27.3359 34.3638 27.1074 34.7916 26.7283 35.1416C26.3491 35.4916 25.897 35.6666 25.372 35.6666H22.6304ZM22.8345 33.3333H25.1387L25.547 30.2416C26.1498 30.086 26.7088 29.8576 27.2241 29.5562C27.7394 29.2548 28.2109 28.8902 28.6387 28.4624L31.5262 29.6583L32.6637 27.6749L30.1554 25.7791C30.2526 25.5069 30.3206 25.2201 30.3595 24.9187C30.3984 24.6173 30.4179 24.311 30.4179 23.9999C30.4179 23.6888 30.3984 23.3826 30.3595 23.0812C30.3206 22.7798 30.2526 22.493 30.1554 22.2208L32.6637 20.3249L31.5262 18.3416L28.6387 19.5666C28.2109 19.1194 27.7394 18.7451 27.2241 18.4437C26.7088 18.1423 26.1498 17.9138 25.547 17.7583L25.1679 14.6666H22.8637L22.4554 17.7583C21.8526 17.9138 21.2936 18.1423 20.7783 18.4437C20.263 18.7451 19.7915 19.1096 19.3637 19.5374L16.4762 18.3416L15.3387 20.3249L17.847 22.1916C17.7498 22.4833 17.6818 22.7749 17.6429 23.0666C17.604 23.3583 17.5845 23.6694 17.5845 23.9999C17.5845 24.311 17.604 24.6124 17.6429 24.9041C17.6818 25.1958 17.7498 25.4874 17.847 25.7791L15.3387 27.6749L16.4762 29.6583L19.3637 28.4333C19.7915 28.8805 20.263 29.2548 20.7783 29.5562C21.2936 29.8576 21.8526 30.086 22.4554 30.2416L22.8345 33.3333ZM24.0595 28.0833C25.1873 28.0833 26.1498 27.6846 26.947 26.8874C27.7443 26.0902 28.1429 25.1277 28.1429 23.9999C28.1429 22.8721 27.7443 21.9096 26.947 21.1124C26.1498 20.3152 25.1873 19.9166 24.0595 19.9166C22.9123 19.9166 21.9449 20.3152 21.1574 21.1124C20.3699 21.9096 19.9762 22.8721 19.9762 23.9999C19.9762 25.1277 20.3699 26.0902 21.1574 26.8874C21.9449 27.6846 22.9123 28.0833 24.0595 28.0833Z" fill="#23264E"/>
</svg>
