<svg width="24" height="24" viewBox="12 12 24 24" fill="none" xmlns="http://www.w3.org/2000/svg">
<path d="M22.5859 13.3977C27.6601 13.3977 31.7734 17.5111 31.7734 22.5852C31.7734 24.6538 31.0892 26.5623 29.9355 28.0979L34.0049 32.1663C34.5124 32.674 34.5125 33.4975 34.0049 34.0051C33.4972 34.5124 32.6736 34.5125 32.166 34.0051L28.0977 29.9358C26.5622 31.089 24.654 31.7727 22.5859 31.7727C17.5118 31.7727 13.3984 27.6593 13.3984 22.5852C13.3984 17.5111 17.5118 13.3977 22.5859 13.3977ZM22.5859 15.9973C18.9478 15.9973 15.9981 18.947 15.998 22.5852C15.998 26.2234 18.9478 29.1731 22.5859 29.1731C26.2241 29.1731 29.1738 26.2234 29.1738 22.5852C29.1738 18.947 26.2241 15.9973 22.5859 15.9973Z" fill="#23264E"/>
</svg>
