<svg width="30" height="30" viewBox="0 0 30 30" fill="none" xmlns="http://www.w3.org/2000/svg">
<path d="M7.5 17.5C6.8125 17.5 6.22396 17.2552 5.73438 16.7656C5.24479 16.276 5 15.6875 5 15C5 14.3125 5.24479 13.724 5.73438 13.2344C6.22396 12.7448 6.8125 12.5 7.5 12.5C8.1875 12.5 8.77604 12.7448 9.26562 13.2344C9.75521 13.724 10 14.3125 10 15C10 15.6875 9.75521 16.276 9.26562 16.7656C8.77604 17.2552 8.1875 17.5 7.5 17.5ZM15 17.5C14.3125 17.5 13.724 17.2552 13.2344 16.7656C12.7448 16.276 12.5 15.6875 12.5 15C12.5 14.3125 12.7448 13.724 13.2344 13.2344C13.724 12.7448 14.3125 12.5 15 12.5C15.6875 12.5 16.276 12.7448 16.7656 13.2344C17.2552 13.724 17.5 14.3125 17.5 15C17.5 15.6875 17.2552 16.276 16.7656 16.7656C16.276 17.2552 15.6875 17.5 15 17.5ZM22.5 17.5C21.8125 17.5 21.224 17.2552 20.7344 16.7656C20.2448 16.276 20 15.6875 20 15C20 14.3125 20.2448 13.724 20.7344 13.2344C21.224 12.7448 21.8125 12.5 22.5 12.5C23.1875 12.5 23.776 12.7448 24.2656 13.2344C24.7552 13.724 25 14.3125 25 15C25 15.6875 24.7552 16.276 24.2656 16.7656C23.776 17.2552 23.1875 17.5 22.5 17.5Z" fill="#23264E"/>
</svg>
