<svg width="24" height="24" viewBox="0 0 24 24" fill="none" xmlns="http://www.w3.org/2000/svg">
<mask id="mask0_915_4413" style="mask-type:alpha" maskUnits="userSpaceOnUse" x="0" y="0" width="24" height="24">
<rect width="24" height="24" fill="#D9D9D9"/>
</mask>
<g mask="url(#mask0_915_4413)">
<path d="M5.83618 17.5565L10.6641 18.6104C11.2508 18.7385 11.8591 18.5132 12.2138 18.0365L13.1429 16.7874L6.66007 13.0484C5.56328 12.4158 4.20966 13.3142 4.39778 14.5499L4.6681 16.3254C4.7607 16.9337 5.22506 17.4231 5.83618 17.5565Z" fill="black"/>
<path d="M19.4828 4.59193C19.9114 3.9741 20.7697 3.81398 21.3986 4.23499C22.0273 4.65602 22.1891 5.4981 21.7607 6.11583L14.2804 17.5492L14.2681 17.5684L14.2547 17.5865L13.3249 18.8351C12.6474 19.746 11.5002 20 10.3644 19.9324C8.43361 19.8175 7.35608 19.7556 5.50017 19C4.32722 18.5224 3.79172 18.0925 3.28909 16.7874C3.08679 16.2622 2.90855 15.4901 3.0339 14.7502C3.39027 12.6463 5.45999 11.168 7.35608 11.8814C8.5081 12.3149 10.6835 13.6618 11.8823 14.429C12.3508 14.7289 12.9754 14.598 13.2787 14.1317L19.4828 4.59193ZM5.88925 14.1937C5.87091 14.1948 5.84442 14.202 5.81708 14.2202C5.78965 14.2384 5.77344 14.2603 5.76569 14.2767C5.76049 14.2877 5.75315 14.3078 5.75958 14.35L6.02994 16.1251C6.0382 16.1793 6.07948 16.2225 6.13393 16.2344L10.9614 17.2884C11.0136 17.2998 11.0679 17.2803 11.0996 17.2379C11.1153 17.2161 11.1087 17.1854 11.0854 17.1719L5.96143 14.2154C5.92373 14.1936 5.90157 14.1931 5.88925 14.1937Z" fill="black"/>
</g>
</svg>
