<svg width="32" height="28" viewBox="0 0 32 28" fill="none" xmlns="http://www.w3.org/2000/svg">
<mask id="mask0_954_4793" style="mask-type:alpha" maskUnits="userSpaceOnUse" x="0" y="0" width="32" height="32">
<rect width="32" height="32" fill="#D9D9D9"/>
</mask>
<g mask="url(#mask0_954_4793)">
<path d="M2.81641 22.6668C2.81641 22.1634 2.99863 21.7297 3.36307 21.3654L10.1614 14.5668C10.8485 13.8799 11.6829 13.5364 12.6644 13.5364C13.646 13.5364 14.4803 13.8799 15.1674 14.5668L17.9601 17.3594L26.1921 8.06544C26.5243 7.68855 26.9414 7.49377 27.4434 7.4811C27.9454 7.46866 28.38 7.63977 28.7471 7.99444C29.0795 8.31421 29.2575 8.7091 29.2811 9.1791C29.3049 9.6491 29.1567 10.0614 28.8367 10.4161L20.5237 19.8101C19.8495 20.589 19.0027 20.992 17.9834 21.0191C16.9641 21.046 16.095 20.7 15.3761 19.9811L12.6644 17.2698L5.96574 23.9681C5.60152 24.3325 5.16774 24.5148 4.66441 24.5148C4.16107 24.5148 3.7273 24.3325 3.36307 23.9681C2.99863 23.6039 2.81641 23.1701 2.81641 22.6668Z" fill="#91989F"/>
</g>
</svg>
