<svg width="24" height="24" viewBox="0 0 24 24" fill="none" xmlns="http://www.w3.org/2000/svg">
<path d="M17.2528 8.57603C15.9869 8.42525 14.7522 8.53032 13.5486 8.89124C12.3449 9.25215 11.2679 9.85133 10.3176 10.6888C9.1797 11.6915 8.35337 12.9028 7.8386 14.3228C7.32383 15.7428 7.19608 17.2049 7.45536 18.7091C7.49708 18.9833 7.45134 19.2402 7.31813 19.4798C7.18491 19.7194 6.98045 19.8718 6.70473 19.937C6.42901 20.0023 6.17412 19.9714 5.94006 19.8445C5.706 19.7175 5.56186 19.5224 5.50763 19.2592C5.16552 17.3837 5.30178 15.5531 5.91639 13.7675C6.53101 11.9818 7.55732 10.4554 8.99532 9.18825C10.1332 8.18552 11.4101 7.46021 12.8259 7.01232C14.2416 6.56443 15.7008 6.41154 17.2033 6.55364L15.5835 4.7155C15.3962 4.50293 15.3111 4.26138 15.3282 3.99086C15.3452 3.72034 15.4601 3.49142 15.6727 3.3041C15.8852 3.11678 16.1268 3.03166 16.3973 3.04874C16.6678 3.06582 16.8967 3.18065 17.0841 3.39322L20.3898 7.14453C20.5771 7.35711 20.6622 7.59865 20.6451 7.86917C20.628 8.13969 20.5132 8.36861 20.3006 8.55593L16.5493 11.8616C16.3368 12.049 16.0952 12.1341 15.8247 12.117C15.5542 12.0999 15.3252 11.9851 15.1379 11.7725C14.9506 11.5599 14.8655 11.3184 14.8826 11.0479C14.8996 10.7774 15.0145 10.5484 15.227 10.3611L17.2528 8.57603Z" fill="#23264E"/>
</svg>
