<svg width="24" height="24" viewBox="0 0 24 24" fill="none" xmlns="http://www.w3.org/2000/svg">
<path d="M11 6.82499L9.09999 8.72499C8.91665 8.90833 8.68749 8.99999 8.41249 8.99999C8.13749 8.99999 7.89999 8.89999 7.69999 8.69999C7.51665 8.51666 7.42499 8.28333 7.42499 7.99999C7.42499 7.71666 7.51665 7.48333 7.69999 7.29999L11.3 3.69999C11.5 3.49999 11.7333 3.39999 12 3.39999C12.2667 3.39999 12.5 3.49999 12.7 3.69999L16.3 7.29999C16.4833 7.48333 16.5792 7.71249 16.5875 7.98749C16.5958 8.26249 16.5 8.49999 16.3 8.69999C16.1167 8.88333 15.8833 8.97499 15.6 8.97499C15.3167 8.97499 15.0833 8.88333 14.9 8.69999L13 6.82499V20C13 20.2833 12.9042 20.5208 12.7125 20.7125C12.5208 20.9042 12.2833 21 12 21C11.7167 21 11.4792 20.9042 11.2875 20.7125C11.0958 20.5208 11 20.2833 11 20V6.82499Z" fill="#23264E"/>
</svg>
