<svg width="32" height="32" viewBox="0 0 32 32" fill="none" xmlns="http://www.w3.org/2000/svg">
<mask id="mask0_562_7986" style="mask-type:alpha" maskUnits="userSpaceOnUse" x="0" y="0" width="32" height="32">
<rect width="32" height="32" fill="#D9D9D9"/>
</mask>
<g mask="url(#mask0_562_7986)">
<path d="M6.66667 14.6667C5.93333 14.6667 5.30556 14.4056 4.78333 13.8833C4.26111 13.3611 4 12.7333 4 12V6.66667C4 5.93333 4.26111 5.30556 4.78333 4.78333C5.30556 4.26111 5.93333 4 6.66667 4H25.3333C26.0667 4 26.6944 4.26111 27.2167 4.78333C27.7389 5.30556 28 5.93333 28 6.66667V12C28 12.7333 27.7389 13.3611 27.2167 13.8833C26.6944 14.4056 26.0667 14.6667 25.3333 14.6667H6.66667ZM6.66667 28C5.93333 28 5.30556 27.7389 4.78333 27.2167C4.26111 26.6944 4 26.0667 4 25.3333V20C4 19.2667 4.26111 18.6389 4.78333 18.1167C5.30556 17.5944 5.93333 17.3333 6.66667 17.3333H25.3333C26.0667 17.3333 26.6944 17.5944 27.2167 18.1167C27.7389 18.6389 28 19.2667 28 20V25.3333C28 26.0667 27.7389 26.6944 27.2167 27.2167C26.6944 27.7389 26.0667 28 25.3333 28H6.66667Z" fill="#23264E"/>
</g>
</svg>
