<svg width="20" height="20" viewBox="0 0 20 20" fill="none" xmlns="http://www.w3.org/2000/svg">
<path d="M9.58464 16.6667C9.14019 16.6667 8.727 16.5556 8.34505 16.3333C7.96311 16.1111 7.65408 15.8056 7.41797 15.4167C7.26519 15.1389 7.26172 14.8611 7.40755 14.5833C7.55339 14.3056 7.77908 14.1667 8.08464 14.1667C8.26519 14.1667 8.42491 14.2222 8.5638 14.3333C8.70269 14.4444 8.82769 14.5694 8.9388 14.7083C9.00825 14.8056 9.102 14.8785 9.22005 14.9271C9.33811 14.9757 9.45964 15 9.58464 15C9.82075 15 10.0187 14.9201 10.1784 14.7604C10.3381 14.6007 10.418 14.4028 10.418 14.1667C10.418 13.9306 10.3381 13.7326 10.1784 13.5729C10.0187 13.4132 9.82075 13.3333 9.58464 13.3333H2.5013C2.26519 13.3333 2.06727 13.2535 1.90755 13.0938C1.74783 12.934 1.66797 12.7361 1.66797 12.5C1.66797 12.2639 1.74783 12.066 1.90755 11.9063C2.06727 11.7465 2.26519 11.6667 2.5013 11.6667H9.58464C10.2791 11.6667 10.8694 11.9097 11.3555 12.3958C11.8416 12.8819 12.0846 13.4722 12.0846 14.1667C12.0846 14.8611 11.8416 15.4514 11.3555 15.9375C10.8694 16.4236 10.2791 16.6667 9.58464 16.6667ZM2.5013 8.33333C2.26519 8.33333 2.06727 8.25347 1.90755 8.09375C1.74783 7.93403 1.66797 7.73611 1.66797 7.5C1.66797 7.26389 1.74783 7.06597 1.90755 6.90625C2.06727 6.74653 2.26519 6.66667 2.5013 6.66667H12.918C13.2652 6.66667 13.5603 6.54514 13.8034 6.30208C14.0464 6.05903 14.168 5.76389 14.168 5.41667C14.168 5.06944 14.0464 4.77431 13.8034 4.53125C13.5603 4.28819 13.2652 4.16667 12.918 4.16667C12.6957 4.16667 12.4874 4.21875 12.293 4.32292C12.0985 4.42708 11.9457 4.57639 11.8346 4.77083C11.7374 4.9375 11.6194 5.08681 11.4805 5.21875C11.3416 5.35069 11.1749 5.41667 10.9805 5.41667C10.7027 5.41667 10.477 5.3125 10.3034 5.10417C10.1298 4.89583 10.0846 4.67361 10.168 4.4375C10.3624 3.85417 10.7131 3.38542 11.2201 3.03125C11.727 2.67708 12.293 2.5 12.918 2.5C13.7235 2.5 14.411 2.78472 14.9805 3.35417C15.5499 3.92361 15.8346 4.61111 15.8346 5.41667C15.8346 6.22222 15.5499 6.90972 14.9805 7.47917C14.411 8.04861 13.7235 8.33333 12.918 8.33333H2.5013ZM16.6263 14.75C16.3485 14.875 16.0777 14.8576 15.8138 14.6979C15.5499 14.5382 15.418 14.3056 15.418 14C15.418 13.8056 15.4839 13.6424 15.6159 13.5104C15.7478 13.3785 15.8971 13.2639 16.0638 13.1667C16.2582 13.0556 16.4076 12.9028 16.5117 12.7083C16.6159 12.5139 16.668 12.3056 16.668 12.0833C16.668 11.7361 16.5464 11.441 16.3034 11.1979C16.0603 10.9549 15.7652 10.8333 15.418 10.8333H2.5013C2.26519 10.8333 2.06727 10.7535 1.90755 10.5938C1.74783 10.434 1.66797 10.2361 1.66797 10C1.66797 9.76389 1.74783 9.56597 1.90755 9.40625C2.06727 9.24653 2.26519 9.16667 2.5013 9.16667H15.418C16.2235 9.16667 16.911 9.45139 17.4805 10.0208C18.0499 10.5903 18.3346 11.2778 18.3346 12.0833C18.3346 12.6667 18.1819 13.1979 17.8763 13.6771C17.5707 14.1563 17.1541 14.5139 16.6263 14.75Z" fill="#91989F"/>
</svg>
