<svg width="20" height="20" viewBox="0 0 20 20" fill="none" xmlns="http://www.w3.org/2000/svg">
<path d="M2.56738 2.93457C2.87981 2.62218 3.38584 2.62216 3.69824 2.93457L17.0654 16.3027C17.3777 16.6152 17.3778 17.1222 17.0654 17.4346C16.7531 17.7466 16.2469 17.7466 15.9346 17.4346L11.998 13.498C12.0538 13.7094 12.085 13.9318 12.085 14.167C12.0849 14.8613 11.8415 15.4515 11.3555 15.9375C10.8694 16.4235 10.2793 16.6669 9.58496 16.667C9.14052 16.667 8.72667 16.5552 8.34473 16.333C7.96304 16.1108 7.65398 15.8056 7.41797 15.417C7.26519 15.1392 7.26139 14.8608 7.40723 14.583C7.55306 14.3053 7.77945 14.167 8.08496 14.167C8.26523 14.1671 8.42475 14.2222 8.56348 14.333C8.70225 14.444 8.82744 14.5693 8.93848 14.708C9.00784 14.8051 9.10186 14.8781 9.21973 14.9268C9.33778 14.9754 9.45996 15 9.58496 15C9.82093 14.9999 10.0191 14.9204 10.1787 14.7607C10.3384 14.6011 10.4179 14.403 10.418 14.167C10.418 13.931 10.3382 13.7329 10.1787 13.5732C10.0191 13.4136 9.82093 13.3331 9.58496 13.333H2.50098C2.26501 13.3329 2.06688 13.2534 1.90723 13.0938C1.74761 12.9341 1.66797 12.736 1.66797 12.5C1.66797 12.264 1.74761 12.0659 1.90723 11.9062C2.06688 11.7466 2.26501 11.6671 2.50098 11.667H9.58496C9.82008 11.667 10.0426 11.6972 10.2539 11.7529L9.33398 10.833H2.50098C2.26501 10.8329 2.06688 10.7534 1.90723 10.5938C1.74761 10.4341 1.66797 10.236 1.66797 10C1.66797 9.76397 1.74761 9.56594 1.90723 9.40625C2.06688 9.2466 2.26501 9.16707 2.50098 9.16699H7.66797L6.83398 8.33301H2.50098C2.26501 8.33293 2.06688 8.2534 1.90723 8.09375C1.74761 7.93406 1.66797 7.73603 1.66797 7.5C1.66797 7.26397 1.74761 7.06594 1.90723 6.90625C2.06688 6.7466 2.26501 6.66707 2.50098 6.66699H5.16895L2.56738 4.06543C2.25499 3.753 2.25498 3.24698 2.56738 2.93457Z" fill="#5E6871"/>
<path d="M15.418 9.16699C16.2234 9.16699 16.9111 9.45117 17.4805 10.0205C18.0498 10.5899 18.3349 11.2776 18.335 12.083C18.335 12.6663 18.1815 13.1976 17.876 13.6768C17.733 13.901 17.5647 14.0975 17.373 14.2686L16.1875 13.083C16.3221 12.9824 16.4311 12.8585 16.5117 12.708C16.6158 12.5136 16.668 12.3051 16.668 12.083C16.6679 11.7361 16.5465 11.4412 16.3037 11.1982C16.0607 10.9552 15.7652 10.833 15.418 10.833H13.9375L12.2715 9.16699H15.418Z" fill="#5E6871"/>
<path d="M12.918 2.5C13.7235 2.5 14.411 2.78505 14.9805 3.35449C15.5498 3.9239 15.835 4.61151 15.835 5.41699C15.8349 6.22241 15.5498 6.91012 14.9805 7.47949C14.4111 8.04883 13.7234 8.33301 12.918 8.33301H11.4375L9.77148 6.66699H12.918C13.2652 6.66699 13.5607 6.54481 13.8037 6.30176C14.0465 6.05884 14.1679 5.76392 14.168 5.41699C14.168 5.06985 14.0467 4.77427 13.8037 4.53125C13.5607 4.28819 13.2652 4.16699 12.918 4.16699C12.6957 4.16699 12.4874 4.21908 12.293 4.32324C12.0987 4.42734 11.946 4.5763 11.835 4.77051C11.7377 4.93717 11.6194 5.08681 11.4805 5.21875C11.3416 5.35069 11.1749 5.41699 10.9805 5.41699C10.7028 5.41699 10.4773 5.31259 10.3037 5.10449C10.1301 4.89616 10.0846 4.67361 10.168 4.4375C10.3624 3.85425 10.7129 3.3854 11.2197 3.03125C11.7267 2.67708 12.293 2.5 12.918 2.5Z" fill="#5E6871"/>
</svg>
